<svg width="13" height="13" viewBox="0 0 13 13" fill="none" xmlns="http://www.w3.org/2000/svg">
<path d="M6.50001 1.08301C3.51001 1.08301 1.08334 3.50967 1.08334 6.49967C1.08334 9.48967 3.51001 11.9163 6.50001 11.9163C9.49001 11.9163 11.9167 9.48967 11.9167 6.49967C11.9167 3.50967 9.49001 1.08301 6.50001 1.08301ZM6.50001 10.833C4.10584 10.833 2.16668 8.89384 2.16668 6.49967C2.16668 4.10551 4.10584 2.16634 6.50001 2.16634C8.89418 2.16634 10.8333 4.10551 10.8333 6.49967C10.8333 8.89384 8.89418 10.833 6.50001 10.833Z" fill="#338A70"/>
<path d="M6.50002 9.20768C7.99579 9.20768 9.20835 7.99512 9.20835 6.49935C9.20835 5.00358 7.99579 3.79102 6.50002 3.79102C5.00425 3.79102 3.79169 5.00358 3.79169 6.49935C3.79169 7.99512 5.00425 9.20768 6.50002 9.20768Z" fill="#338A70"/>
</svg>
