<?xml version="1.0" standalone="no"?>
<!DOCTYPE svg PUBLIC "-//W3C//DTD SVG 20010904//EN"
 "http://www.w3.org/TR/2001/REC-SVG-20010904/DTD/svg10.dtd">
<svg version="1.0" xmlns="http://www.w3.org/2000/svg"
 width="1063.000000pt" height="1280.000000pt" viewBox="0 0 1063.000000 1280.000000"
 preserveAspectRatio="xMidYMid meet">
<metadata>
Created by potrace 1.15, written by Peter Selinger 2001-2017
</metadata>
<g transform="translate(0.000000,1280.000000) scale(0.100000,-0.100000)"
fill="#000000" stroke="none">
<path d="M5500 12776 c-63 -13 -163 -36 -221 -50 -159 -38 -267 -54 -449 -68
-265 -20 -276 -19 -362 25 -172 88 -363 71 -637 -59 l-94 -44 -182 0 c-101 0
-229 -5 -286 -10 -182 -18 -245 -34 -489 -122 -30 -11 -166 -49 -302 -83 -135
-35 -266 -72 -290 -83 -23 -10 -79 -45 -123 -77 -171 -125 -208 -148 -284
-180 -99 -41 -243 -126 -386 -229 -213 -152 -380 -304 -557 -509 -68 -78 -190
-211 -272 -297 -178 -186 -261 -290 -320 -402 -50 -93 -117 -285 -141 -398
-36 -174 -29 -375 19 -524 l23 -72 -40 -95 c-85 -204 -101 -259 -102 -344 0
-101 19 -143 115 -251 77 -87 100 -127 100 -171 0 -16 -18 -81 -41 -144 -62
-174 -82 -281 -83 -439 -1 -118 3 -149 28 -245 36 -136 49 -167 93 -228 79
-107 203 -168 356 -173 54 -1 106 -6 116 -9 29 -9 46 -41 89 -171 52 -157 83
-217 144 -276 85 -83 176 -118 472 -179 l108 -22 77 -76 c86 -87 159 -129 275
-161 97 -27 239 -29 352 -6 85 18 119 15 213 -19 24 -8 73 -15 110 -15 70 0
83 -6 194 -82 187 -128 467 -124 665 10 56 39 58 39 87 24 50 -26 163 -28 242
-4 65 20 172 80 219 124 21 19 23 19 55 2 41 -21 136 -21 222 -1 56 14 58 14
69 -7 25 -46 33 -1161 9 -1296 -7 -41 -16 -135 -20 -207 -9 -155 -18 -173 -85
-173 -23 0 -94 -16 -159 -37 -137 -43 -113 -46 -327 49 -277 123 -407 153
-540 123 -41 -10 -119 -21 -172 -25 -143 -12 -190 -30 -264 -106 -59 -61 -65
-64 -111 -64 -76 -1 -127 -16 -205 -64 -56 -34 -87 -45 -133 -50 -153 -17
-281 -130 -320 -284 -20 -78 -8 -151 36 -212 38 -52 74 -74 174 -105 44 -14
105 -36 135 -49 104 -46 182 -43 318 11 57 23 64 24 85 10 65 -42 214 -50 341
-18 l78 21 41 -35 c91 -78 262 -107 395 -66 37 11 85 32 105 45 l37 25 47 -22
c40 -18 67 -22 168 -22 112 -1 124 -3 178 -30 65 -33 73 -49 58 -115 -5 -25
-84 -499 -176 -1055 -92 -555 -170 -1013 -173 -1017 -4 -4 -27 -11 -51 -17
l-45 -10 -70 76 c-168 180 -343 273 -514 273 -43 0 -93 -5 -110 -11 -28 -10
-35 -8 -62 15 -17 14 -50 31 -73 37 -51 14 -170 6 -218 -14 l-34 -14 -34 58
c-75 129 -194 229 -342 288 -316 126 -635 9 -779 -288 -18 -36 -39 -86 -46
-111 l-13 -45 -71 -12 c-140 -22 -263 -112 -321 -237 -28 -60 -34 -67 -72 -76
-166 -43 -282 -115 -367 -229 -63 -85 -91 -156 -97 -256 -10 -147 40 -268 141
-346 28 -22 57 -44 63 -49 24 -20 15 -99 -19 -169 -85 -173 -18 -366 155 -451
70 -34 113 -39 262 -27 l100 8 36 -33 c44 -42 104 -72 189 -94 82 -21 278 -14
393 15 l78 19 57 -28 c84 -42 159 -54 285 -46 85 5 119 3 164 -10 74 -22 181
-14 286 19 64 21 84 23 115 15 64 -18 217 -5 307 26 79 27 80 27 140 10 75
-21 204 -19 340 4 99 17 101 17 175 -4 162 -47 290 -53 650 -28 l245 18 190
-37 c269 -51 312 -57 476 -64 218 -9 408 20 530 82 62 32 84 31 137 -5 54 -36
110 -45 221 -34 47 5 122 8 166 6 362 -10 448 -8 525 16 96 30 151 62 221 129
51 49 57 52 70 37 21 -26 91 -53 175 -70 52 -9 86 -22 107 -40 82 -69 185 -99
337 -98 119 0 194 16 274 56 37 19 41 19 115 3 42 -10 110 -30 152 -46 138
-53 247 -72 414 -73 138 0 156 2 224 27 82 29 172 86 200 126 10 14 24 43 32
64 16 46 41 69 94 86 47 16 154 83 208 131 82 72 164 200 204 320 26 78 25
288 -1 385 -38 140 -110 251 -196 304 -30 18 -32 23 -36 92 -6 100 -37 208
-87 304 -57 108 -192 246 -293 298 -76 39 -168 67 -220 67 -27 0 -36 7 -57 43
-79 135 -277 218 -439 184 l-65 -13 -34 29 c-157 133 -403 141 -644 20 -100
-51 -186 -115 -224 -168 -46 -64 -73 -79 -148 -82 -82 -3 -157 -36 -218 -97
-33 -34 -53 -46 -75 -46 -16 0 -64 -18 -106 -41 l-78 -40 -55 28 c-54 27 -61
28 -208 28 -130 0 -153 2 -153 15 0 8 -4 62 -10 120 -57 616 -110 1453 -110
1741 l0 76 43 13 c55 16 114 51 171 102 42 36 51 40 84 35 20 -4 87 -31 147
-61 192 -96 283 -99 510 -16 l80 29 150 -19 c251 -33 379 -23 511 39 132 62
199 158 198 286 -1 124 -72 233 -172 263 -33 10 -41 18 -51 52 -16 54 -92 128
-169 164 -42 20 -64 38 -72 56 -28 68 -131 131 -245 151 -39 6 -106 29 -150
50 -102 48 -173 63 -272 57 -100 -6 -181 -42 -272 -123 -98 -86 -91 -84 -234
-86 -116 -2 -131 0 -156 19 -16 11 -44 27 -64 35 -47 20 -61 48 -52 106 4 25
10 366 13 758 4 391 10 714 13 717 3 3 35 -10 71 -29 143 -76 296 -92 425 -44
68 25 71 25 147 4 50 -14 68 -15 120 -5 33 7 77 21 98 31 l38 19 167 -45 c225
-61 325 -77 468 -78 132 -1 231 20 328 69 63 32 143 115 182 186 15 29 29 55
31 56 1 2 22 -9 46 -25 168 -115 388 -145 533 -74 102 50 177 145 215 271 l16
55 69 8 c182 20 384 95 512 190 106 79 180 192 214 327 18 70 16 261 -3 356
l-14 70 83 44 c268 140 404 349 374 575 -9 68 -21 101 -81 218 -50 100 -67
143 -61 155 4 9 11 41 15 71 10 74 18 86 81 115 72 33 167 124 211 202 42 75
74 196 74 279 0 34 -9 96 -19 137 -67 263 -259 536 -561 798 -74 64 -88 83
-116 146 -143 329 -410 649 -757 907 -50 37 -94 67 -97 67 -4 0 -35 18 -68 40
-48 30 -72 56 -108 112 -109 170 -272 300 -470 376 -135 51 -177 57 -454 57
-247 0 -256 1 -295 23 -87 49 -271 134 -343 158 -126 43 -206 53 -400 53 -351
0 -679 64 -927 181 -235 111 -323 126 -515 86z"/>
</g>
</svg>
