<svg width="107" height="110" viewBox="0 0 107 110" fill="none" xmlns="http://www.w3.org/2000/svg">
<path d="M5.1006 1C4.51803 1.01483 3.94571 1.12133 3.41935 1.31285C2.893 1.50438 2.42391 1.77682 2.04136 2.11318C1.6588 2.44953 1.37098 2.84258 1.19589 3.26779C1.0208 3.69301 0.962176 4.14125 1.02368 4.58457L7.74728 43.0764H10.6008C11.4176 43.0764 12.2309 43.2319 13.0547 43.2319C15.5793 43.5019 18.0463 44.0257 20.3917 44.7896C21.4001 45.0583 22.3591 45.4251 23.2452 45.8808C24.2354 46.1815 25.1901 46.5466 26.0987 46.972C30.0482 48.1798 34.277 48.7627 38.5293 48.6852C40.9205 48.7124 43.3092 48.5562 45.6596 48.2187C46.9125 48.0518 48.1407 47.7904 49.3264 47.4385L52.3832 46.5028C53.3734 46.2022 54.3281 45.8371 55.2367 45.4116L58.2935 44.4759C59.4701 44.1036 60.7013 43.8417 61.9603 43.6958C64.3107 43.3583 66.6994 43.202 69.0905 43.2293C83.9645 43.2293 84.3711 48.527 98.2285 48.8407L105.962 4.74007C106.042 4.29453 105.996 3.84106 105.828 3.41007C105.66 2.97907 105.374 2.5805 104.988 2.24106C104.602 1.90163 104.126 1.62917 103.592 1.44194C103.057 1.25472 102.476 1.15706 101.888 1.1555H5.1006V1Z" stroke="#E3F6FF"/>
<path d="M61.9498 43.5424C60.6969 43.7093 59.4686 43.9707 58.283 44.3226L55.2262 45.2583C54.236 45.559 53.2813 45.9241 52.3727 46.3495L49.3159 47.2851C48.1393 47.6574 46.908 47.9194 45.6491 48.0653C43.2987 48.4028 40.91 48.5591 38.5188 48.5318C34.2665 48.6094 30.0377 48.0266 26.0882 46.8187C25.0798 46.55 24.1208 46.1832 23.2347 45.7275C22.2445 45.4268 21.2899 45.0617 20.3812 44.6363C18.0324 43.8723 15.5618 43.3495 13.0336 43.0813C12.2168 43.0813 11.4036 42.9258 10.5798 42.9258H7.72626L18.7301 104.949C18.9368 106.076 19.6701 107.106 20.794 107.851C21.918 108.596 23.3566 109.004 24.8438 109H82.3274C83.8146 109.004 85.2532 108.596 86.3772 107.851C87.5011 107.106 88.2343 106.076 88.4411 104.949L98.4248 48.6927C84.5674 48.3817 83.9575 43.0839 69.2869 43.0839C66.8272 43.0471 64.369 43.2008 61.9498 43.5424V43.5424Z" fill="#66D5DC" stroke="#E1F4FF"/>
<path d="M25.6256 77.4697H81.4266" stroke="#3C84C7" stroke-width="2"/>
<path d="M53.5261 56.1348V98.8117" stroke="#3C84C7" stroke-width="2"/>
</svg>
