<svg width="332" height="475" viewBox="0 0 332 475" fill="none" xmlns="http://www.w3.org/2000/svg">
<g opacity="0.8" filter="url(#filter0_i)">
<path d="M24.8732 19.0746C24.8732 19.0746 33.9564 30.2752 34.8524 44.9792C35.7484 59.6832 16.0716 59.1722 15.1918 45.138C14.312 31.1038 24.8732 19.0746 24.8732 19.0746Z" fill="#66D5DC"/>
</g>
<g opacity="0.8" filter="url(#filter1_i)">
<path d="M14.8732 438.153C14.8732 438.153 23.9564 449.353 24.8524 464.057C25.7484 478.761 6.07161 478.25 5.1918 464.216C4.31199 450.182 14.8732 438.153 14.8732 438.153Z" fill="#66D5DC"/>
</g>
<g opacity="0.8" filter="url(#filter2_i)">
<path d="M321.873 388.291C321.873 388.291 330.956 399.492 331.852 414.196C332.748 428.9 313.072 428.389 312.192 414.355C311.312 400.321 321.873 388.291 321.873 388.291Z" fill="#66D5DC"/>
</g>
<g opacity="0.8" filter="url(#filter3_i)">
<path d="M104.873 370.483C104.873 370.483 113.956 381.683 114.852 396.387C115.748 411.091 96.0716 410.58 95.1918 396.546C94.312 382.512 104.873 370.483 104.873 370.483Z" fill="#66D5DC"/>
</g>
<g opacity="0.8" filter="url(#filter4_i)">
<path d="M166.873 318.079C166.873 318.079 175.956 329.28 176.852 343.984C177.748 358.688 158.072 358.177 157.192 344.143C156.312 330.109 166.873 318.079 166.873 318.079Z" fill="#66D5DC"/>
</g>
<g opacity="0.8" filter="url(#filter5_i)">
<path d="M301.873 113.079C301.873 113.079 310.956 124.28 311.852 138.984C312.748 153.688 293.072 153.177 292.192 139.143C291.312 125.109 301.873 113.079 301.873 113.079Z" fill="#66D5DC"/>
</g>
<g opacity="0.8" filter="url(#filter6_i)">
<path d="M9.87322 290.942C9.87322 290.942 18.9564 302.142 19.8524 316.846C20.7484 331.55 1.07161 331.039 0.191799 317.005C-0.688013 302.971 9.87322 290.942 9.87322 290.942Z" fill="#66D5DC"/>
</g>
<g opacity="0.8" filter="url(#filter7_i)">
<path d="M114.873 161.537C114.873 161.537 123.956 172.738 124.852 187.442C125.748 202.146 106.072 201.635 105.192 187.601C104.312 173.567 114.873 161.537 114.873 161.537Z" fill="#66D5DC"/>
</g>
<g opacity="0.8" filter="url(#filter8_i)">
<path d="M321.873 0.0794521C321.873 0.0794521 330.956 11.2801 331.852 25.9841C332.748 40.6881 313.072 40.1771 312.192 26.1429C311.312 12.1087 321.873 0.0794521 321.873 0.0794521Z" fill="#66D5DC"/>
</g>
<g opacity="0.8" filter="url(#filter9_i)">
<path d="M166.873 94.0795C166.873 94.0795 175.956 105.28 176.852 119.984C177.748 134.688 158.072 134.177 157.192 120.143C156.312 106.109 166.873 94.0795 166.873 94.0795Z" fill="#66D5DC"/>
</g>
<defs>
<filter id="filter0_i" x="15.1397" y="19.0742" width="19.7424" height="40.7613" filterUnits="userSpaceOnUse" color-interpolation-filters="sRGB">
<feFlood flood-opacity="0" result="BackgroundImageFix"/>
<feBlend mode="normal" in="SourceGraphic" in2="BackgroundImageFix" result="shape"/>
<feColorMatrix in="SourceAlpha" type="matrix" values="0 0 0 0 0 0 0 0 0 0 0 0 0 0 0 0 0 0 127 0" result="hardAlpha"/>
<feOffset dy="4"/>
<feGaussianBlur stdDeviation="2"/>
<feComposite in2="hardAlpha" operator="arithmetic" k2="-1" k3="1"/>
<feColorMatrix type="matrix" values="0 0 0 0 0 0 0 0 0 0 0 0 0 0 0 0 0 0 0.25 0"/>
<feBlend mode="normal" in2="shape" result="effect1_innerShadow"/>
</filter>
<filter id="filter1_i" x="5.13974" y="438.152" width="19.7424" height="40.7613" filterUnits="userSpaceOnUse" color-interpolation-filters="sRGB">
<feFlood flood-opacity="0" result="BackgroundImageFix"/>
<feBlend mode="normal" in="SourceGraphic" in2="BackgroundImageFix" result="shape"/>
<feColorMatrix in="SourceAlpha" type="matrix" values="0 0 0 0 0 0 0 0 0 0 0 0 0 0 0 0 0 0 127 0" result="hardAlpha"/>
<feOffset dy="4"/>
<feGaussianBlur stdDeviation="2"/>
<feComposite in2="hardAlpha" operator="arithmetic" k2="-1" k3="1"/>
<feColorMatrix type="matrix" values="0 0 0 0 0 0 0 0 0 0 0 0 0 0 0 0 0 0 0.25 0"/>
<feBlend mode="normal" in2="shape" result="effect1_innerShadow"/>
</filter>
<filter id="filter2_i" x="312.14" y="388.291" width="19.7424" height="40.7613" filterUnits="userSpaceOnUse" color-interpolation-filters="sRGB">
<feFlood flood-opacity="0" result="BackgroundImageFix"/>
<feBlend mode="normal" in="SourceGraphic" in2="BackgroundImageFix" result="shape"/>
<feColorMatrix in="SourceAlpha" type="matrix" values="0 0 0 0 0 0 0 0 0 0 0 0 0 0 0 0 0 0 127 0" result="hardAlpha"/>
<feOffset dy="4"/>
<feGaussianBlur stdDeviation="2"/>
<feComposite in2="hardAlpha" operator="arithmetic" k2="-1" k3="1"/>
<feColorMatrix type="matrix" values="0 0 0 0 0 0 0 0 0 0 0 0 0 0 0 0 0 0 0.25 0"/>
<feBlend mode="normal" in2="shape" result="effect1_innerShadow"/>
</filter>
<filter id="filter3_i" x="95.1397" y="370.482" width="19.7424" height="40.7613" filterUnits="userSpaceOnUse" color-interpolation-filters="sRGB">
<feFlood flood-opacity="0" result="BackgroundImageFix"/>
<feBlend mode="normal" in="SourceGraphic" in2="BackgroundImageFix" result="shape"/>
<feColorMatrix in="SourceAlpha" type="matrix" values="0 0 0 0 0 0 0 0 0 0 0 0 0 0 0 0 0 0 127 0" result="hardAlpha"/>
<feOffset dy="4"/>
<feGaussianBlur stdDeviation="2"/>
<feComposite in2="hardAlpha" operator="arithmetic" k2="-1" k3="1"/>
<feColorMatrix type="matrix" values="0 0 0 0 0 0 0 0 0 0 0 0 0 0 0 0 0 0 0.25 0"/>
<feBlend mode="normal" in2="shape" result="effect1_innerShadow"/>
</filter>
<filter id="filter4_i" x="157.14" y="318.079" width="19.7424" height="40.7613" filterUnits="userSpaceOnUse" color-interpolation-filters="sRGB">
<feFlood flood-opacity="0" result="BackgroundImageFix"/>
<feBlend mode="normal" in="SourceGraphic" in2="BackgroundImageFix" result="shape"/>
<feColorMatrix in="SourceAlpha" type="matrix" values="0 0 0 0 0 0 0 0 0 0 0 0 0 0 0 0 0 0 127 0" result="hardAlpha"/>
<feOffset dy="4"/>
<feGaussianBlur stdDeviation="2"/>
<feComposite in2="hardAlpha" operator="arithmetic" k2="-1" k3="1"/>
<feColorMatrix type="matrix" values="0 0 0 0 0 0 0 0 0 0 0 0 0 0 0 0 0 0 0.25 0"/>
<feBlend mode="normal" in2="shape" result="effect1_innerShadow"/>
</filter>
<filter id="filter5_i" x="292.14" y="113.079" width="19.7424" height="40.7613" filterUnits="userSpaceOnUse" color-interpolation-filters="sRGB">
<feFlood flood-opacity="0" result="BackgroundImageFix"/>
<feBlend mode="normal" in="SourceGraphic" in2="BackgroundImageFix" result="shape"/>
<feColorMatrix in="SourceAlpha" type="matrix" values="0 0 0 0 0 0 0 0 0 0 0 0 0 0 0 0 0 0 127 0" result="hardAlpha"/>
<feOffset dy="4"/>
<feGaussianBlur stdDeviation="2"/>
<feComposite in2="hardAlpha" operator="arithmetic" k2="-1" k3="1"/>
<feColorMatrix type="matrix" values="0 0 0 0 0 0 0 0 0 0 0 0 0 0 0 0 0 0 0.25 0"/>
<feBlend mode="normal" in2="shape" result="effect1_innerShadow"/>
</filter>
<filter id="filter6_i" x="0.13974" y="290.941" width="19.7424" height="40.7613" filterUnits="userSpaceOnUse" color-interpolation-filters="sRGB">
<feFlood flood-opacity="0" result="BackgroundImageFix"/>
<feBlend mode="normal" in="SourceGraphic" in2="BackgroundImageFix" result="shape"/>
<feColorMatrix in="SourceAlpha" type="matrix" values="0 0 0 0 0 0 0 0 0 0 0 0 0 0 0 0 0 0 127 0" result="hardAlpha"/>
<feOffset dy="4"/>
<feGaussianBlur stdDeviation="2"/>
<feComposite in2="hardAlpha" operator="arithmetic" k2="-1" k3="1"/>
<feColorMatrix type="matrix" values="0 0 0 0 0 0 0 0 0 0 0 0 0 0 0 0 0 0 0.25 0"/>
<feBlend mode="normal" in2="shape" result="effect1_innerShadow"/>
</filter>
<filter id="filter7_i" x="105.14" y="161.537" width="19.7424" height="40.7613" filterUnits="userSpaceOnUse" color-interpolation-filters="sRGB">
<feFlood flood-opacity="0" result="BackgroundImageFix"/>
<feBlend mode="normal" in="SourceGraphic" in2="BackgroundImageFix" result="shape"/>
<feColorMatrix in="SourceAlpha" type="matrix" values="0 0 0 0 0 0 0 0 0 0 0 0 0 0 0 0 0 0 127 0" result="hardAlpha"/>
<feOffset dy="4"/>
<feGaussianBlur stdDeviation="2"/>
<feComposite in2="hardAlpha" operator="arithmetic" k2="-1" k3="1"/>
<feColorMatrix type="matrix" values="0 0 0 0 0 0 0 0 0 0 0 0 0 0 0 0 0 0 0.25 0"/>
<feBlend mode="normal" in2="shape" result="effect1_innerShadow"/>
</filter>
<filter id="filter8_i" x="312.14" y="0.0791016" width="19.7424" height="40.7613" filterUnits="userSpaceOnUse" color-interpolation-filters="sRGB">
<feFlood flood-opacity="0" result="BackgroundImageFix"/>
<feBlend mode="normal" in="SourceGraphic" in2="BackgroundImageFix" result="shape"/>
<feColorMatrix in="SourceAlpha" type="matrix" values="0 0 0 0 0 0 0 0 0 0 0 0 0 0 0 0 0 0 127 0" result="hardAlpha"/>
<feOffset dy="4"/>
<feGaussianBlur stdDeviation="2"/>
<feComposite in2="hardAlpha" operator="arithmetic" k2="-1" k3="1"/>
<feColorMatrix type="matrix" values="0 0 0 0 0 0 0 0 0 0 0 0 0 0 0 0 0 0 0.25 0"/>
<feBlend mode="normal" in2="shape" result="effect1_innerShadow"/>
</filter>
<filter id="filter9_i" x="157.14" y="94.0791" width="19.7424" height="40.7613" filterUnits="userSpaceOnUse" color-interpolation-filters="sRGB">
<feFlood flood-opacity="0" result="BackgroundImageFix"/>
<feBlend mode="normal" in="SourceGraphic" in2="BackgroundImageFix" result="shape"/>
<feColorMatrix in="SourceAlpha" type="matrix" values="0 0 0 0 0 0 0 0 0 0 0 0 0 0 0 0 0 0 127 0" result="hardAlpha"/>
<feOffset dy="4"/>
<feGaussianBlur stdDeviation="2"/>
<feComposite in2="hardAlpha" operator="arithmetic" k2="-1" k3="1"/>
<feColorMatrix type="matrix" values="0 0 0 0 0 0 0 0 0 0 0 0 0 0 0 0 0 0 0.25 0"/>
<feBlend mode="normal" in2="shape" result="effect1_innerShadow"/>
</filter>
</defs>
</svg>
