<svg width="360" height="134" viewBox="0 0 360 134" fill="none" xmlns="http://www.w3.org/2000/svg">
<g filter="url(#filter0_d)">
<path d="M1.90735e-05 0H360C360 0 401 86 360 86C319 86 334 76.5 291.5 82.5C249 88.5 185.5 148.5 123.5 115.5C61.5 82.5 52 86 1.90735e-05 86C-52 86 1.90735e-05 0 1.90735e-05 0Z" fill="#3E9999"/>
</g>
<g filter="url(#filter1_d)">
<path d="M-1.90735e-06 0H360C360 0 396 86 360 86C324 86 337.5 73 285.5 74C233.5 75 187 119 125 86C63 53 36 86 -1.90735e-06 86C-36 86 -1.90735e-06 0 -1.90735e-06 0Z" fill="#368181"/>
</g>
<defs>
<filter id="filter0_d" x="-27.1111" y="0" width="409.333" height="133.35" filterUnits="userSpaceOnUse" color-interpolation-filters="sRGB">
<feFlood flood-opacity="0" result="BackgroundImageFix"/>
<feColorMatrix in="SourceAlpha" type="matrix" values="0 0 0 0 0 0 0 0 0 0 0 0 0 0 0 0 0 0 127 0"/>
<feOffset dy="4"/>
<feGaussianBlur stdDeviation="2"/>
<feColorMatrix type="matrix" values="0 0 0 0 0 0 0 0 0 0 0 0 0 0 0 0 0 0 0.25 0"/>
<feBlend mode="normal" in2="BackgroundImageFix" result="effect1_dropShadow"/>
<feBlend mode="normal" in="SourceGraphic" in2="effect1_dropShadow" result="shape"/>
</filter>
<filter id="filter1_d" x="-20" y="0" width="400" height="106.253" filterUnits="userSpaceOnUse" color-interpolation-filters="sRGB">
<feFlood flood-opacity="0" result="BackgroundImageFix"/>
<feColorMatrix in="SourceAlpha" type="matrix" values="0 0 0 0 0 0 0 0 0 0 0 0 0 0 0 0 0 0 127 0"/>
<feOffset dy="4"/>
<feGaussianBlur stdDeviation="2"/>
<feColorMatrix type="matrix" values="0 0 0 0 0 0 0 0 0 0 0 0 0 0 0 0 0 0 0.25 0"/>
<feBlend mode="normal" in2="BackgroundImageFix" result="effect1_dropShadow"/>
<feBlend mode="normal" in="SourceGraphic" in2="effect1_dropShadow" result="shape"/>
</filter>
</defs>
</svg>
