<svg width="211" height="380" viewBox="0 0 211 380" fill="none" xmlns="http://www.w3.org/2000/svg">
<g clip-path="url(#clip0)">
<path d="M109.173 0.711943C107.922 1.09788 105.937 1.78069 104.786 2.19632C101.63 3.32444 99.486 3.79944 95.8734 4.21507C90.6132 4.80882 90.3949 4.77913 88.6878 3.47288C85.2737 0.86038 81.4825 1.36507 76.0437 5.22444L74.1779 6.53069H70.5653C68.5605 6.53069 66.0197 6.67913 64.8883 6.82757C61.2757 7.36194 60.0252 7.83694 55.1819 10.4494C54.5864 10.776 51.8869 11.9041 49.1874 12.9135C46.5077 13.9526 43.9074 15.051 43.431 15.3776C42.9745 15.6744 41.8629 16.7135 40.9895 17.6635C37.5953 21.3744 36.8608 22.0573 35.3523 23.0073C33.3872 24.2244 30.5289 26.7479 27.6904 29.8057C23.4624 34.3182 20.1476 38.8307 16.6342 44.9166C15.2845 47.2323 12.8628 51.1807 11.2352 53.7338C7.70196 59.2557 6.05445 62.3432 4.88333 65.6682C3.89086 68.4291 2.56095 74.1291 2.08456 77.4838C1.36998 82.6494 1.50892 88.6166 2.4617 93.0401L2.91824 95.1776L2.12426 97.9979C0.437051 104.054 0.119459 105.687 0.0996094 108.21C0.0996094 111.209 0.47675 112.456 2.3823 115.662C3.91071 118.245 4.36725 119.432 4.36725 120.738C4.36725 121.213 4.00996 123.143 3.55342 125.013C2.32275 130.179 1.92576 133.356 1.90591 138.046C1.88606 141.549 1.96546 142.47 2.4617 145.32C3.17628 149.357 3.43432 150.278 4.3077 152.088C5.87581 155.265 8.33714 157.076 11.3741 157.224C12.446 157.254 13.4782 157.403 13.6767 157.492C14.2523 157.759 14.5897 158.709 15.4433 162.568C16.4754 167.229 17.0908 169.01 18.3016 170.762C19.9888 173.226 21.7951 174.265 27.6705 176.076L29.8143 176.729L31.3427 178.985C33.0497 181.568 34.4988 182.815 36.8013 183.765C38.7267 184.567 41.5453 184.626 43.7883 183.943C45.4755 183.409 46.1504 183.498 48.0163 184.507C48.4926 184.745 49.4653 184.953 50.1997 184.953C51.5892 184.953 51.8472 185.131 54.0505 187.387C57.7624 191.187 63.3202 191.068 67.2504 187.09C68.362 185.932 68.4017 185.932 68.9773 186.378C69.9698 187.149 72.2128 187.209 73.7809 186.496C75.0711 185.903 77.195 184.121 78.1279 182.815C78.5448 182.251 78.5845 182.251 79.2196 182.756C80.0335 183.379 81.9192 183.379 83.6262 182.785C84.7378 182.37 84.7775 182.37 84.9958 182.993C85.4921 184.359 85.6509 217.46 85.1745 221.468C85.0355 222.685 84.8569 225.476 84.7775 227.613C84.5989 232.215 84.4202 232.749 83.0903 232.749C82.6338 232.749 81.2244 233.224 79.9342 233.848C77.2148 235.124 77.6912 235.213 73.4434 232.393C67.9451 228.742 65.3647 227.851 62.7247 228.742C61.9109 229.038 60.3626 229.365 59.3106 229.484C56.4721 229.84 55.5392 230.374 54.0703 232.631C52.8992 234.442 52.7801 234.531 51.8671 234.531C50.3585 234.56 49.3462 235.006 47.7979 236.431C46.6863 237.44 46.071 237.767 45.1579 237.915C42.121 238.42 39.5802 241.774 38.8061 246.346C38.4091 248.662 38.6473 250.829 39.5207 252.64C40.275 254.184 40.9895 254.837 42.9745 255.757C43.8479 256.173 45.0587 256.826 45.6542 257.212C47.7185 258.578 49.2668 258.488 51.9663 256.885C53.0977 256.203 53.2367 256.173 53.6535 256.588C54.9437 257.835 57.9013 258.073 60.4222 257.123L61.9704 256.499L62.7843 257.538C64.5906 259.854 67.9848 260.715 70.6248 259.498C71.3592 259.171 72.312 258.548 72.709 258.162L73.4434 257.42L74.3764 258.073C75.1703 258.607 75.7063 258.726 77.7111 258.726C79.9342 258.756 80.1724 258.815 81.2443 259.617C82.5345 260.596 82.6933 261.071 82.3956 263.031C82.2963 263.773 80.7282 277.845 78.902 294.351C77.0759 310.828 75.5276 324.424 75.4681 324.543C75.3887 324.662 74.9322 324.87 74.4558 325.048L73.5625 325.345L72.1731 323.088C68.8384 317.745 65.3647 314.984 61.9704 314.984C61.1169 314.984 60.1244 315.132 59.787 315.31C59.2312 315.607 59.0923 315.548 58.5563 314.865C58.2189 314.449 57.5639 313.945 57.1073 313.767C56.095 313.351 53.7329 313.588 52.7801 314.182L52.1052 314.598L51.4304 312.876C49.9417 309.046 47.5796 306.078 44.6418 304.326C38.3694 300.585 32.0374 304.059 29.1791 312.876C28.8218 313.945 28.405 315.429 28.266 316.171L28.008 317.507L26.5987 317.863C23.8197 318.517 21.3783 321.188 20.227 324.899C19.6712 326.681 19.5521 326.888 18.7978 327.156C15.5028 328.432 13.2003 330.57 11.5131 333.954C10.2625 336.478 9.70676 338.585 9.58766 341.554C9.38917 345.918 10.3816 349.51 12.3864 351.826C12.9422 352.479 13.5179 353.132 13.637 353.281C14.1133 353.874 13.9347 356.22 13.2598 358.298C11.5726 363.434 12.9025 369.163 16.3365 371.687C17.7259 372.696 18.5795 372.845 21.537 372.488L23.522 372.251L24.2366 373.231C25.11 374.478 26.3009 375.368 27.9881 376.021C29.6158 376.645 33.5063 376.437 35.789 375.576L37.3372 375.012L38.4687 375.843C40.136 377.09 41.6247 377.446 44.1258 377.209C45.813 377.06 46.4878 377.12 47.3811 377.506C48.8499 378.159 50.9738 377.921 53.058 376.942C54.3284 376.318 54.7254 376.259 55.3407 376.496C56.6111 377.031 59.6481 376.645 61.4345 375.724C63.0026 374.923 63.0225 374.923 64.2134 375.428C65.7021 376.051 68.2627 375.992 70.9623 375.309C72.9274 374.804 72.9671 374.804 74.4359 375.428C77.6515 376.823 80.1923 377.001 87.3381 376.259L92.2012 375.724L95.9726 376.823C101.312 378.337 102.166 378.515 105.421 378.723C109.748 378.99 113.52 378.129 115.941 376.288C117.172 375.338 117.609 375.368 118.661 376.437C119.732 377.506 120.844 377.773 123.047 377.446C123.98 377.298 125.469 377.209 126.342 377.268C133.528 377.565 135.235 377.506 136.763 376.793C138.669 375.903 139.761 374.953 141.15 372.963C142.162 371.509 142.281 371.42 142.539 371.865C142.956 372.637 144.346 373.438 146.013 373.943C147.045 374.21 147.72 374.596 148.137 375.131C149.765 377.179 151.809 378.07 154.826 378.04C157.188 378.04 158.677 377.565 160.265 376.378C161 375.813 161.079 375.813 162.548 376.288C163.381 376.585 164.731 377.179 165.565 377.654C168.304 379.228 170.468 379.792 173.783 379.821C176.522 379.821 176.879 379.762 178.229 379.02C179.857 378.159 181.643 376.467 182.199 375.279C182.397 374.863 182.675 374.003 182.834 373.379C183.152 372.013 183.648 371.331 184.7 370.826C185.633 370.351 187.757 368.362 188.828 366.937C190.456 364.799 192.084 360.999 192.878 357.437C193.394 355.121 193.374 348.887 192.858 346.007C192.104 341.851 190.674 338.556 188.967 336.982C188.372 336.448 188.332 336.299 188.253 334.251C188.134 331.282 187.518 328.076 186.526 325.226C185.395 322.02 182.715 317.923 180.71 316.379C179.201 315.221 177.375 314.39 176.343 314.39C175.807 314.39 175.629 314.182 175.212 313.113C173.644 309.106 169.713 306.642 166.498 307.651L165.208 308.037L164.533 307.176C161.416 303.228 156.533 302.99 151.75 306.582C149.765 308.096 148.058 309.996 147.303 311.57C146.39 313.47 145.854 313.915 144.366 314.004C142.738 314.093 141.249 315.073 140.038 316.884C139.383 317.893 138.986 318.249 138.55 318.249C138.232 318.249 137.279 318.784 136.446 319.467L134.897 320.654L133.806 319.823C132.734 319.021 132.595 318.992 129.677 318.992C127.097 318.992 126.64 318.932 126.64 318.546C126.64 318.309 126.561 316.706 126.442 314.984C125.31 296.696 124.258 271.848 124.258 263.298V261.042L125.112 260.656C126.203 260.181 127.374 259.142 128.506 257.628C129.34 256.559 129.518 256.44 130.173 256.588C130.57 256.707 131.9 257.509 133.091 258.399C136.902 261.249 138.709 261.338 143.214 258.874L144.802 258.013L147.78 258.578C152.762 259.557 155.303 259.26 157.923 257.42C160.543 255.579 161.873 252.729 161.853 248.929C161.833 245.248 160.424 242.012 158.439 241.121C157.784 240.824 157.625 240.587 157.427 239.578C157.109 237.974 155.6 235.778 154.072 234.709C153.238 234.115 152.802 233.581 152.643 233.046C152.087 231.028 150.043 229.157 147.78 228.563C147.006 228.385 145.676 227.703 144.802 227.079C142.778 225.654 141.368 225.209 139.403 225.387C137.418 225.565 135.811 226.634 134.004 229.038C132.059 231.592 132.198 231.532 129.359 231.592C127.057 231.651 126.759 231.592 126.263 231.028C125.945 230.701 125.39 230.226 124.993 229.988C124.06 229.395 123.782 228.563 123.96 226.842C124.04 226.099 124.159 215.976 124.218 204.338C124.298 192.731 124.417 183.142 124.476 183.053C124.536 182.963 125.171 183.349 125.886 183.913C128.724 186.17 131.761 186.645 134.322 185.22C135.672 184.478 135.731 184.478 137.24 185.101C138.232 185.517 138.589 185.546 139.622 185.249C140.277 185.042 141.15 184.626 141.567 184.329L142.321 183.765L145.636 185.101C150.102 186.912 152.087 187.387 154.926 187.417C157.546 187.446 159.511 186.823 161.436 185.368C162.687 184.418 164.275 181.954 165.049 179.846C165.347 178.985 165.624 178.213 165.664 178.184C165.684 178.124 166.101 178.451 166.577 178.926C169.912 182.34 174.279 183.231 177.157 181.123C179.182 179.638 180.67 176.818 181.425 173.078L181.742 171.445L183.112 171.207C186.724 170.613 190.734 168.387 193.275 165.567C195.379 163.221 196.848 159.867 197.523 155.859C197.88 153.781 197.84 148.11 197.463 145.29L197.185 143.212L198.833 141.906C204.152 137.749 206.852 131.545 206.256 124.835C206.078 122.817 205.839 121.837 204.649 118.363C203.656 115.395 203.319 114.118 203.438 113.762C203.517 113.495 203.656 112.545 203.735 111.654C203.934 109.457 204.093 109.101 205.343 108.24C206.772 107.26 208.658 104.559 209.531 102.243C210.365 100.017 211 96.4244 211 93.9604C211 92.951 210.822 91.1104 210.623 89.8932C209.293 82.0854 205.482 73.9807 199.488 66.2026C198.019 64.3026 197.741 63.7385 197.185 61.8682C194.347 52.101 189.047 42.601 182.159 34.9416C181.167 33.8432 180.293 32.9526 180.234 32.9526C180.154 32.9526 179.539 32.4182 178.884 31.7651C177.931 30.8744 177.455 30.1026 176.74 28.4401C174.577 23.3932 171.341 19.5338 167.411 17.2776C164.731 15.7635 163.898 15.5854 158.399 15.5854C153.496 15.5854 153.318 15.5557 152.544 14.9026C150.817 13.4479 147.164 10.9244 145.735 10.2119C143.234 8.93538 141.646 8.6385 137.795 8.6385C130.828 8.6385 124.318 6.7385 119.395 3.26507C114.73 -0.0302448 112.984 -0.475557 109.173 0.711943Z" fill="#FF0000"/>
</g>
<defs>
<clipPath id="clip0">
<rect width="211" height="380" fill="white"/>
</clipPath>
</defs>
</svg>
