<svg width="64" height="74" viewBox="0 0 64 74" fill="none" xmlns="http://www.w3.org/2000/svg">
<path d="M3.44831 0.896484C3.10475 0.906398 2.76723 0.977606 2.45683 1.10566C2.14642 1.23372 1.86978 1.41588 1.64418 1.64077C1.41857 1.86566 1.24884 2.12846 1.14558 2.41277C1.04232 2.69707 1.00775 2.99678 1.04402 3.29318L5.00914 29.0294H6.69193C7.17361 29.0294 7.65323 29.1334 8.13905 29.1334C9.62793 29.3139 11.0828 29.6641 12.4659 30.1749C13.0606 30.3546 13.6262 30.5998 14.1487 30.9045C14.7327 31.1055 15.2957 31.3496 15.8315 31.6341C18.1607 32.4416 20.6545 32.8313 23.1622 32.7795C24.5724 32.7977 25.9811 32.6933 27.3672 32.4676C28.106 32.356 28.8304 32.1813 29.5296 31.946L31.3323 31.3204C31.9162 31.1193 32.4792 30.8753 33.0151 30.5908L34.8178 29.9652C35.5117 29.7162 36.2377 29.5411 36.9802 29.4435C38.3663 29.2179 39.775 29.1134 41.1851 29.1316C49.9567 29.1316 50.1965 32.6738 58.3686 32.8835L62.9291 3.39715C62.9763 3.09925 62.9495 2.79606 62.8504 2.50789C62.7514 2.21972 62.5825 1.95323 62.355 1.72628C62.1276 1.49932 61.8468 1.31715 61.5315 1.19197C61.2162 1.06679 60.8737 1.0015 60.5269 1.00045H3.44831V0.896484Z" stroke="#E3F6FF"/>
<path d="M36.974 29.341C36.2351 29.4526 35.5108 29.6273 34.8116 29.8626L33.0089 30.4883C32.4249 30.6893 31.8619 30.9334 31.3261 31.2178L29.5234 31.8435C28.8295 32.0924 28.1034 32.2675 27.361 32.3651C25.9749 32.5907 24.5662 32.6952 23.156 32.677C20.6483 32.7288 18.1545 32.3392 15.8253 31.5315C15.2307 31.3519 14.6651 31.1067 14.1425 30.802C13.5586 30.6009 12.9956 30.3568 12.4597 30.0724C11.0746 29.5616 9.61758 29.212 8.12664 29.0327C7.64496 29.0327 7.16535 28.9287 6.67953 28.9287H4.99673L11.486 70.3985C11.608 71.1516 12.0404 71.8409 12.7032 72.3389C13.366 72.8368 14.2144 73.1098 15.0914 73.1071H48.9913C49.8683 73.1098 50.7167 72.8368 51.3796 72.3389C52.0424 71.8409 52.4748 71.1516 52.5967 70.3985L58.4844 32.7846C50.3123 32.5766 49.9526 29.0345 41.3009 29.0345C39.8504 29.0099 38.4007 29.1126 36.974 29.341V29.341Z" fill="#66D5DC" stroke="#E1F4FF"/>
<path d="M15.5524 52.0254H48.46" stroke="#3C84C7" stroke-width="2"/>
</svg>
